<svg width="19" height="18" fill="none" xmlns="http://www.w3.org/2000/svg"><path d="M17.921 7.99a.42.42 0 00-.285-.126H1.372a.42.42 0 00-.285.127c-.077.075-.103.201-.077.302l1.295 6.865C2.512 16.218 3.574 17 4.817 17h9.349c1.243 0 2.305-.782 2.512-1.842l1.295-6.865a.263.263 0 00-.052-.302zm-1.968 7.041c-.13.707-.88 1.237-1.787 1.237h-9.35c-.906 0-1.63-.53-1.786-1.237L1.813 8.596H17.17l-1.217 6.435zM4.014 6.855a.77.77 0 00.777-.757.803.803 0 00-.207-.53l.673-3.205c.078-.354.544-.631 1.088-.631h6.293c.544 0 1.01.277 1.088.63l.699 3.206a.756.756 0 00-.207.53.77.77 0 00.777.757.77.77 0 00.777-.757c0-.379-.285-.682-.648-.757l-.673-3.13C14.296 1.505 13.544 1 12.638 1H6.345c-.907 0-1.658.505-1.813 1.211l-.673 3.13c-.363.075-.648.378-.648.757a.81.81 0 00.803.757z" fill="#282930"/><path d="M17.921 7.99a.42.42 0 00-.285-.126H1.372a.42.42 0 00-.285.127c-.077.075-.103.201-.077.302l1.295 6.865C2.512 16.218 3.574 17 4.817 17h9.349c1.243 0 2.305-.782 2.512-1.842l1.295-6.865a.263.263 0 00-.052-.302zm-1.968 7.041c-.13.707-.88 1.237-1.787 1.237h-9.35c-.906 0-1.63-.53-1.786-1.237L1.813 8.596H17.17l-1.217 6.435zM4.014 6.855a.77.77 0 00.777-.757.803.803 0 00-.207-.53l.673-3.205c.078-.354.544-.631 1.088-.631h6.293c.544 0 1.01.277 1.088.63l.699 3.206a.756.756 0 00-.207.53.77.77 0 00.777.757.77.77 0 00.777-.757c0-.379-.285-.682-.648-.757l-.673-3.13C14.296 1.505 13.544 1 12.638 1H6.345c-.907 0-1.658.505-1.813 1.211l-.673 3.13c-.363.075-.648.378-.648.757a.81.81 0 00.803.757z" stroke="#000" stroke-width=".5"/></svg>