<svg width="35" height="32" fill="none" xmlns="http://www.w3.org/2000/svg"><path d="M34.459 12.61a.467.467 0 00-.668-.01l-7.634 7.502-7.19-7.66L30.79.821l.003-.004a.474.474 0 00.089-.132l.014-.022.002-.009a.48.48 0 00.034-.173l.001-.004c0-.02-.01-.039-.011-.059-.005-.04-.009-.081-.024-.12a.488.488 0 00-.07-.11c-.01-.013-.015-.03-.028-.043l-.002-.002A.474.474 0 0030.464 0h-29.4a.476.476 0 00-.472.479V28.68c0 .265.211.48.472.48H6.76l-.057.126-.007.015c-.108.24-.166.51-.166.78C6.53 31.14 7.38 32 8.422 32c.667 0 1.289-.363 1.625-.947l.004-.005 1.11-1.889h.064l-.239.98v.015l-.004.016a1.583 1.583 0 00-.023.273c0 .858.69 1.556 1.536 1.556a1.53 1.53 0 001.381-.878l.027-.06v-.005l.411-.866-.005.024a1.436 1.436 0 00-.017.228c0 .86.69 1.558 1.536 1.558.587 0 1.113-.337 1.367-.863l.008-.01.795-1.343-.07.383c-.002.01 0 .019 0 .029-.016.077-.03.155-.03.247 0 .784.63 1.422 1.403 1.422a1.4 1.4 0 001.27-.826l.003-.006.915-1.874h9.307a.475.475 0 00.473-.479V16.413l3.18-3.126a.483.483 0 00.01-.676zM17.521.959v5.197H13.61V.958h3.912zM30.324 28.2h-8.368l2.92-5.981a.482.482 0 00-.213-.642.47.47 0 00-.633.217l-3.266 6.69-.006.014-1.03 2.11c-.004.007-.003.013-.006.02l-.003-.001a.45.45 0 01-.418.279.462.462 0 01-.459-.465c0-.044.005-.061.005-.063.002-.007 0-.012.001-.018.002-.007.006-.012.008-.02l.552-3.001v-.011c.006-.035 0-.07-.002-.105-.001-.027.002-.055-.004-.082-.007-.028-.023-.053-.034-.08-.013-.03-.021-.06-.04-.086-.013-.02-.034-.033-.05-.05-.026-.028-.051-.057-.084-.078l-.008-.007c-.023-.014-.05-.017-.074-.027-.028-.01-.051-.028-.081-.033h-.01a.465.465 0 00-.132.003c-.017.002-.035-.001-.052.003-.032.008-.061.026-.092.04-.025.012-.051.02-.073.035-.017.012-.029.03-.044.045-.03.03-.06.056-.083.093l-.006.006-2.145 3.63c-.011.018-.013.039-.021.059l-.01-.004a.585.585 0 01-.534.35.596.596 0 01-.59-.599v-.04l.79-3.861c.002-.013-.002-.025 0-.038a.456.456 0 000-.097.493.493 0 00-.013-.088.446.446 0 00-.034-.084.465.465 0 00-.045-.078c-.017-.024-.039-.043-.06-.063a.44.44 0 00-.077-.059c-.011-.007-.018-.017-.03-.022-.018-.01-.037-.008-.055-.014-.019-.007-.033-.02-.053-.024-.013-.002-.025.002-.037 0a.446.446 0 00-.097 0c-.03.003-.057.005-.084.012a.519.519 0 00-.225.143.485.485 0 00-.057.077c-.007.011-.017.018-.023.03l-1.066 2.252-.005.01-1.05 2.216v.004a.588.588 0 01-.523.324.596.596 0 01-.588-.68l.032-.14 1.012-4.147c.002-.008 0-.016 0-.025.007-.033.005-.066.005-.099 0-.03 0-.058-.005-.087-.006-.03-.019-.056-.03-.085-.012-.029-.021-.056-.039-.082-.015-.025-.037-.044-.057-.065-.023-.024-.045-.048-.073-.067-.007-.005-.01-.012-.019-.017-.02-.012-.044-.014-.066-.024-.021-.009-.039-.024-.062-.03h-.024c-.034-.008-.067-.006-.101-.005-.028 0-.056-.001-.082.005-.03.006-.057.02-.085.031-.029.012-.056.022-.081.039-.023.015-.041.036-.061.056-.025.024-.049.047-.068.076-.005.007-.012.01-.016.018L9.24 30.557l-.001.004-.003.003a.941.941 0 01-.814.477.955.955 0 01-.947-.96.94.94 0 01.077-.378l.003-.007v-.001l.005-.01.039-.083.002-.009 4.791-10.679c.006-.012.004-.024.009-.036a.487.487 0 00.022-.095.46.46 0 00.006-.089c0-.03-.007-.057-.014-.086a.492.492 0 00-.03-.094c-.005-.011-.005-.024-.01-.034-.01-.015-.024-.025-.034-.039a.437.437 0 00-.141-.13c-.015-.01-.025-.023-.041-.03-.012-.006-.024-.005-.036-.01a.465.465 0 00-.093-.021.425.425 0 00-.088-.008.457.457 0 00-.085.015.491.491 0 00-.092.03c-.011.006-.024.006-.034.011l-3.685 2.12-.005.005-.004.001-.081.044c-.348.2-.82.31-1.33.31-1.092 0-1.788-.502-1.788-.848 0-.142.109-.303.28-.43l.164-.107 6.98-4.56h5.003c.26 0 .472-.214.472-.478a.476.476 0 00-.472-.479h-5.147c-.018 0-.032.008-.05.01a.457.457 0 00-.065.014.458.458 0 00-.115.045c-.008.005-.016.005-.024.01L4.77 18.588v.001h-.001l-.184.122c-.445.327-.69.76-.69 1.218 0 1.012 1.2 1.805 2.732 1.805.67 0 1.308-.154 1.777-.424a2.14 2.14 0 00.106-.057l.004-.002 2.419-1.392-3.742 8.34H1.536V.955h11.129v5.677c0 .265.212.479.472.479h4.857c.26 0 .472-.214.472-.479V.956h10.83L17.976 12.08l-.003.003c-.021.021-.032.048-.048.072-.02.028-.044.053-.057.083-.013.03-.014.064-.02.096-.006.028-.017.055-.018.083 0 .034.01.066.017.1.005.027.004.055.014.081.01.03.033.053.05.08.016.027.026.056.049.08l7.842 8.355.002.001.001.002c.03.031.067.05.102.07.02.012.035.03.055.038a.47.47 0 00.355.004c.017-.007.031-.022.048-.03.036-.02.073-.038.105-.068l.001-.003h.002l3.852-3.786V28.2z" fill="#F4AD7B"/></svg>