<svg width="21" height="18" fill="none" xmlns="http://www.w3.org/2000/svg"><path d="M18.88 2.097h.001a5.418 5.418 0 011.2 1.764 5.346 5.346 0 01-.004 4.158 5.418 5.418 0 01-1.202 1.762v.001l-7.45 7.342s0 0 0 0a1.33 1.33 0 01-1.855 0h-.001l-.528-.522-.013-.015-.008-.008-.008-.009-6.898-6.796s0 0 0 0A5.39 5.39 0 01.5 5.932a5.39 5.39 0 011.618-3.84A5.573 5.573 0 016.03.5c1.468 0 2.874.576 3.909 1.597h0l.21.207.351.346.351-.346.21-.207s0 0 0 0 0 0 0 0A5.576 5.576 0 0114.97.504c1.468 0 2.874.574 3.91 1.593z" stroke="#3B3B3B"/></svg>