<svg width="14" height="13" fill="none" xmlns="http://www.w3.org/2000/svg"><path d="M.858 5.726s6.192-2.634 8.34-3.562c.823-.37 3.614-1.558 3.614-1.558s1.289-.52 1.182.742c-.036.52-.322 2.337-.609 4.304-.43 2.782-.895 5.825-.895 5.825s-.071.853-.68 1.002c-.608.148-1.61-.52-1.79-.668-.142-.111-2.683-1.781-3.614-2.597-.25-.223-.537-.668.036-1.188a138.994 138.994 0 003.758-3.71c.43-.445.859-1.484-.93-.222-2.542 1.818-5.047 3.524-5.047 3.524s-.573.371-1.647.037C1.503 7.321.25 6.876.25 6.876s-.86-.556.608-1.15z" fill="#000"/></svg>