<svg width="15" height="16" fill="none" xmlns="http://www.w3.org/2000/svg"><path fill-rule="evenodd" clip-rule="evenodd" d="M4.067 6.322a1.912 1.912 0 01.195-.996c.047-.123.112-.238.193-.342.145-.195.338-.349.561-.447 0 0 .663-.064.72.024a9.95 9.95 0 01.768 1.668c.101.379-.431.81-.431.81s-.338.172 0 .596c.251.317.679.87.936 1.073.271.221.56.42.863.596.628.346.744.31.744.31s.116.047.432-.382c.168-.227.352-.494.528-.548.203-.062 1.841.876 1.776.81.115.116.024.485.024.485s.036.413-.588.89c-.412.314-1.092.39-1.092.39a4.179 4.179 0 01-1.248-.287c-.665-.25-1.368-.46-2.28-1.286A9.198 9.198 0 014.533 7.73c-.48-.824-.466-1.408-.466-1.408zm3.577 8.844a7.362 7.362 0 01-3.628-.95L0 15.5l1.32-3.907a7.31 7.31 0 011.057-8.887 7.384 7.384 0 018.894-1.251 7.342 7.342 0 013.152 3.532c.63 1.492.748 3.15.334 4.715a7.332 7.332 0 01-2.623 3.938 7.378 7.378 0 01-4.49 1.526zM7.632 1.75a6.162 6.162 0 00-3.206.885 6.13 6.13 0 00-2.273 2.42 6.103 6.103 0 00.45 6.366l-.586 1.768.002.002-.17.499.993-.294a.026.026 0 00-.006-.005l1.363-.427a6.17 6.17 0 007.893-.843 6.127 6.127 0 001.618-5.284 6.12 6.12 0 00-1.123-2.61 6.174 6.174 0 00-4.956-2.478z" fill="#00C232"/><path fill-rule="evenodd" clip-rule="evenodd" d="M4.067 6.322a1.912 1.912 0 01.195-.996c.047-.123.112-.238.193-.342.145-.195.338-.349.561-.447 0 0 .663-.064.72.024a9.95 9.95 0 01.768 1.668c.101.379-.431.81-.431.81s-.338.172 0 .596c.251.317.679.87.936 1.073.271.221.56.42.863.596.628.346.744.31.744.31s.116.047.432-.382c.168-.227.352-.494.528-.548.203-.062 1.841.876 1.776.81.115.116.024.485.024.485s.036.413-.588.89c-.412.314-1.092.39-1.092.39a4.179 4.179 0 01-1.248-.287c-.665-.25-1.368-.46-2.28-1.286A9.198 9.198 0 014.533 7.73c-.48-.824-.466-1.408-.466-1.408zm3.577 8.844a7.362 7.362 0 01-3.628-.95L0 15.5l1.32-3.907a7.31 7.31 0 011.057-8.887 7.384 7.384 0 018.894-1.251 7.342 7.342 0 013.152 3.532c.63 1.492.748 3.15.334 4.715a7.332 7.332 0 01-2.623 3.938 7.378 7.378 0 01-4.49 1.526zM7.632 1.75a6.162 6.162 0 00-3.206.885 6.13 6.13 0 00-2.273 2.42 6.103 6.103 0 00.45 6.366l-.586 1.768.002.002-.17.499.993-.294a.026.026 0 00-.006-.005l1.363-.427a6.17 6.17 0 007.893-.843 6.127 6.127 0 001.618-5.284 6.12 6.12 0 00-1.123-2.61 6.174 6.174 0 00-4.956-2.478z" fill="#fff"/><path fill-rule="evenodd" clip-rule="evenodd" d="M4.067 6.322a1.912 1.912 0 01.195-.996c.047-.123.112-.238.193-.342.145-.195.338-.349.561-.447 0 0 .663-.064.72.024a9.95 9.95 0 01.768 1.668c.101.379-.431.81-.431.81s-.338.172 0 .596c.251.317.679.87.936 1.073.271.221.56.42.863.596.628.346.744.31.744.31s.116.047.432-.382c.168-.227.352-.494.528-.548.203-.062 1.841.876 1.776.81.115.116.024.485.024.485s.036.413-.588.89c-.412.314-1.092.39-1.092.39a4.179 4.179 0 01-1.248-.287c-.665-.25-1.368-.46-2.28-1.286A9.198 9.198 0 014.533 7.73c-.48-.824-.466-1.408-.466-1.408zm3.577 8.844a7.362 7.362 0 01-3.628-.95L0 15.5l1.32-3.907a7.31 7.31 0 011.057-8.887 7.384 7.384 0 018.894-1.251 7.342 7.342 0 013.152 3.532c.63 1.492.748 3.15.334 4.715a7.332 7.332 0 01-2.623 3.938 7.378 7.378 0 01-4.49 1.526zM7.632 1.75a6.162 6.162 0 00-3.206.885 6.13 6.13 0 00-2.273 2.42 6.103 6.103 0 00.45 6.366l-.586 1.768.002.002-.17.499.993-.294a.026.026 0 00-.006-.005l1.363-.427a6.17 6.17 0 007.893-.843 6.127 6.127 0 001.618-5.284 6.12 6.12 0 00-1.123-2.61 6.174 6.174 0 00-4.956-2.478z" fill="#000"/></svg>